<svg width="186" height="65" viewBox="0 0 186 65" fill="none" xmlns="http://www.w3.org/2000/svg">
<path d="M109.521 43.8645C104.214 41.8346 99.715 38.7427 95.3292 35.4761C89.4404 31.0898 83.7216 26.4604 77.6876 22.2868C71.6953 18.142 65.4378 14.3754 59.2328 10.5469C51.9832 6.07454 44.0826 3.91744 35.5391 3.7521C31.8456 3.68051 28.1515 2.35575 24.4848 2.47164C18.2998 2.66685 12.2364 3.96792 6.39786 6.21104C4.78287 6.83118 2.96488 6.94861 1.2256 7.19533C0.848832 7.24838 0.4102 6.86362 0 6.68026C0.280248 6.27902 0.480147 5.64395 0.854189 5.51466C2.91369 4.80284 5.07929 4.37121 7.09145 3.55432C13.4005 0.992889 20.0016 -0.187131 26.7227 0.0240461C31.8137 0.183717 36.8773 1.22467 41.9533 1.87468C48.2438 2.67922 54.2134 4.61741 59.6675 7.77323C65.3209 11.0439 70.8367 14.5891 76.1867 18.3383C82.196 22.55 87.886 27.217 93.8371 31.5158C99.9777 35.951 106.371 39.8892 113.346 43.0517C119.435 45.812 125.468 48.5902 131.829 50.6562C137.502 52.4986 143.147 54.3724 149.206 54.463C157.56 54.5877 165.914 54.7788 174.268 54.939C174.835 54.9498 175.487 54.7597 175.951 54.9786C176.898 55.4247 177.745 56.0855 178.633 56.6577C177.76 56.8967 176.889 57.335 176.014 57.3428C169.617 57.402 163.215 57.2058 156.825 57.4154C147.713 57.7141 139.022 55.8939 130.556 52.7484C125.295 50.7932 120.067 48.7442 114.864 46.6381C113.061 45.9083 111.379 44.8792 109.521 43.8645Z" fill="#E24666"/>
<path d="M185.992 58.4727C186.019 58.9188 185.985 59.492 185.821 59.5322C179.791 61.0146 173.759 62.4918 167.704 63.8639C165.533 64.3558 163.31 64.6654 161.093 64.8755C160.325 64.9487 159.504 64.4707 158.708 64.2441C159.403 63.6589 160.017 62.7467 160.809 62.5495C163.4 61.9026 166.068 61.5714 168.684 61.0151C172.244 60.2584 175.754 59.2093 179.343 58.6602C181.928 58.2651 181.048 56.9775 180.128 56.1122C178.692 54.7601 176.864 53.8366 175.302 52.6035C172.541 50.4237 169.823 48.1868 167.149 45.9004C165.214 44.246 163.324 42.5298 161.542 40.7152C161.081 40.2465 161.101 39.3029 160.901 38.5771C161.52 38.7487 162.276 38.7492 162.738 39.119C167.131 42.6277 171.499 46.1688 175.822 49.7629C179.21 52.5798 182.524 55.4853 185.992 58.4727Z" fill="#E24666"/>
</svg>
