<svg width="297" height="109" viewBox="0 0 297 109" fill="none" xmlns="http://www.w3.org/2000/svg">
<path fill-rule="evenodd" clip-rule="evenodd" d="M219.046 14.7108C233.257 16.313 244.281 20.6519 255.268 25.4004C291.3 40.99 302.023 61.1667 274.92 77.6521C232.781 103.207 138.952 114.051 68.2836 98.928C52.6322 95.5883 31.3614 91.981 16.4988 81.1379C2.67275 71.0554 4.20862 60.6648 11.7615 51.5895C19.4579 42.2804 33.4135 34.3227 44.4019 29.3866C92.4395 7.85898 186.157 -7.26247 267.958 12.3582C269.641 12.7458 271.382 12.4908 271.934 11.7966C272.486 11.1025 271.704 10.2361 270.142 9.85933C185.939 -10.335 89.2555 5.02658 39.8128 27.1812C26.1397 33.3387 8.01638 44.0349 2.0262 56.2347C-2.02667 64.5766 -0.498065 73.6075 11.4789 82.4088C27.2605 93.9545 49.8468 97.9467 66.4609 101.499C139.416 117.115 236.458 105.996 279.899 79.5958C309.074 61.8809 297.751 40.1928 259.001 23.4344C247.19 18.292 235.086 13.6795 219.66 11.9412C217.96 11.7501 216.447 12.2159 216.378 12.9892C216.188 13.7517 217.468 14.5305 219.046 14.7108Z" fill="#E24666"/>
</svg>
