<svg width="111" height="197" viewBox="0 0 111 197" fill="none" xmlns="http://www.w3.org/2000/svg">
<path d="M48.6486 117.142C49.2357 111.49 51.0579 106.345 53.0781 101.263C55.7908 94.4395 58.7823 87.7174 61.252 80.8087C63.7046 73.9479 65.7234 66.9287 67.8154 59.9442C70.259 51.7841 70.2978 43.5944 68.2463 35.2993C67.3595 31.7131 67.683 27.802 66.6221 24.2902C64.8327 18.3665 62.0066 12.8464 58.3288 7.78739C57.3118 6.38793 56.7279 4.66229 56.0394 3.04613C55.8907 2.69593 56.1488 2.17266 56.2197 1.72898C56.6798 1.89583 57.345 1.92455 57.5667 2.25238C58.7873 4.05747 59.7647 6.03757 61.0746 7.76974C65.1816 13.2009 68.0299 19.2716 69.5655 25.8184C70.7289 30.7772 71.034 35.9377 71.7199 41.009C72.5708 47.2934 72.2437 53.5612 70.6071 59.6462C68.911 65.9535 66.9142 72.199 64.6775 78.337C62.1646 85.2316 59.1293 91.9356 56.5173 98.7965C53.8225 105.876 51.6732 113.071 50.4237 120.627C49.3334 127.222 48.2112 133.769 47.8622 140.448C47.5509 146.405 47.2018 152.342 48.6824 158.218C50.7243 166.32 52.7018 174.438 54.7094 182.55C54.8456 183.1 55.1978 183.68 55.1066 184.185C54.9209 185.216 54.5016 186.204 54.1787 187.21C53.7219 186.429 53.0731 185.701 52.8391 184.857C51.1265 178.695 49.6588 172.459 47.8025 166.341C45.1557 157.617 44.6645 148.751 45.5117 139.76C46.0386 134.172 46.6646 128.592 47.3523 123.021C47.5907 121.09 48.1494 119.2 48.6486 117.142Z" fill="#E24666"/>
<path d="M54.3303 194.788C53.9063 194.93 53.3439 195.046 53.2626 194.897C50.2702 189.457 47.2822 184.013 44.3895 178.519C43.3526 176.549 42.4781 174.482 41.7013 172.395C41.4319 171.672 41.6812 170.756 41.694 169.928C42.4392 170.448 43.4792 170.805 43.8746 171.519C45.1702 173.854 46.1805 176.345 47.3949 178.728C49.0472 181.971 50.9691 185.09 52.4284 188.415C53.4789 190.809 54.4949 189.626 55.0928 188.514C56.0269 186.776 56.4459 184.771 57.2327 182.944C58.6236 179.712 60.0808 176.508 61.5973 173.334C62.6946 171.037 63.8631 168.767 65.1546 166.576C65.488 166.009 66.4046 165.784 67.0538 165.403C67.0485 166.046 67.2436 166.776 67.0061 167.318C64.7538 172.469 62.464 177.605 60.1112 182.711C58.267 186.712 56.3183 190.665 54.3303 194.788Z" fill="#E24666"/>
</svg>
