<svg width="100" height="100" viewBox="0 0 100 100" fill="none" xmlns="http://www.w3.org/2000/svg">
<path d="M73.4375 28.125C72.6719 38.4512 64.8438 46.875 56.25 46.875C47.6563 46.875 39.8145 38.4531 39.0625 28.125C38.2813 17.3828 45.8985 9.375 56.25 9.375C66.6016 9.375 74.2188 17.5781 73.4375 28.125Z" stroke="#4F86F7" stroke-width="6.25" stroke-linecap="round" stroke-linejoin="round"/>
<path d="M56.25 59.375C39.2578 59.375 22.0117 68.75 18.8203 86.4453C18.4297 88.5781 19.6426 90.625 21.8769 90.625H90.625C92.8594 90.625 94.0664 88.5781 93.6816 86.4453C90.4883 68.75 73.2422 59.375 56.25 59.375Z" stroke="#4F86F7" stroke-width="6.25" stroke-miterlimit="10"/>
<path d="M17.1875 34.375V56.25" stroke="#4F86F7" stroke-width="6.25" stroke-linecap="round" stroke-linejoin="round"/>
<path d="M28.125 45.3125H6.25" stroke="#4F86F7" stroke-width="6.25" stroke-linecap="round" stroke-linejoin="round"/>
</svg>
