<svg width="100" height="100" viewBox="0 0 100 100" fill="none" xmlns="http://www.w3.org/2000/svg">
<path d="M65.625 3.125H34.375C29.1973 3.125 25 7.32233 25 12.5V87.5C25 92.6777 29.1973 96.875 34.375 96.875H65.625C70.8027 96.875 75 92.6777 75 87.5V12.5C75 7.32233 70.8027 3.125 65.625 3.125Z" stroke="#4F86F7" stroke-width="6" stroke-linecap="round" stroke-linejoin="round"/>
<path d="M34.375 3.125H39.0625C39.4769 3.125 39.8743 3.28962 40.1674 3.58265C40.4604 3.87567 40.625 4.2731 40.625 4.6875C40.625 5.5163 40.9542 6.31116 41.5403 6.89721C42.1263 7.48326 42.9212 7.8125 43.75 7.8125H56.25C57.0788 7.8125 57.8737 7.48326 58.4597 6.89721C59.0458 6.31116 59.375 5.5163 59.375 4.6875C59.375 4.2731 59.5396 3.87567 59.8326 3.58265C60.1257 3.28962 60.5231 3.125 60.9375 3.125H65.625" stroke="#4F86F7" stroke-width="6" stroke-linecap="round" stroke-linejoin="round"/>
</svg>
