<svg width="27" height="27" viewBox="0 0 27 27" fill="none" xmlns="http://www.w3.org/2000/svg">
<path d="M7.46425 4.99675C8.07314 8.86516 11.9896 11.077 13.8717 11.6994C17.9777 4.69806 15.4655 1.48491 14.1216 0.595934C12.3413 -0.581819 6.70313 0.16123 7.46425 4.99675Z" fill="#E24666"/>
<path d="M4.78904 16.1844C8.67256 16.688 11.8966 13.5517 13.0232 11.9206C7.45924 6.01126 3.66924 7.51838 2.43819 8.55798C0.807257 9.93528 -0.0653696 15.5548 4.78904 16.1844Z" fill="#E24666"/>
<path d="M19.4279 3.89349C15.8491 5.48328 14.7268 9.83888 14.613 11.8179C22.4387 13.9711 24.8918 10.7126 25.4025 9.18437C26.0791 7.15973 23.9015 1.90626 19.4279 3.89349Z" fill="#E24666"/>
<path d="M23.2731 14.6519C20.5942 11.7955 16.1119 12.1689 14.2056 12.7126C14.7474 20.811 18.6317 22.0553 20.2428 22.0347C22.3773 22.0074 26.6217 18.2224 23.2731 14.6519Z" fill="#E24666"/>
<path d="M14.6234 22.1625C16.3207 18.6334 14.355 14.5878 13.16 13.0062C5.80279 16.4338 6.04398 20.5053 6.64458 22.0004C7.44027 23.9813 12.5018 26.5739 14.6234 22.1625Z" fill="#E24666"/>
<circle cx="13.9455" cy="12.638" r="2.17899" fill="white"/>
</svg>
