<svg width="194" height="104" viewBox="0 0 194 104" fill="none" xmlns="http://www.w3.org/2000/svg">
<g filter="url(#filter0_d_2_101)">
<path fill-rule="evenodd" clip-rule="evenodd" d="M138.287 22.0517C146.024 23.3097 151.898 26.3816 157.736 29.7304C176.88 40.7241 181.942 54.5148 166.389 65.3452C142.211 82.1329 90.2567 88.3303 52.0786 77.2303C43.6226 74.7785 32.0926 72.0769 24.3764 64.5548C17.1981 57.5602 18.4659 50.5443 22.9833 44.4923C27.5889 38.2836 35.5756 33.0663 41.8098 29.8584C69.0617 15.8695 121.13 6.77448 165.235 21.0553C166.144 21.3382 167.109 21.1868 167.441 20.7235C167.773 20.2603 167.378 19.6642 166.537 19.3901C121.135 4.69168 67.4295 13.9131 39.3806 28.3093C31.6226 32.3114 21.236 39.332 17.4488 47.5184C14.8829 53.1167 15.3531 59.2494 21.5686 65.354C29.7607 73.3631 41.9971 76.3412 50.9729 78.9484C90.3864 90.4105 144.116 84.0659 169.043 66.7218C185.784 55.0843 180.454 40.263 159.865 28.4448C153.591 24.8193 147.135 21.5491 138.737 20.1842C137.812 20.034 136.962 20.3309 136.893 20.8536C136.757 21.3675 137.428 21.9104 138.287 22.0517Z" fill="#323232"/>
</g>
<defs>
<filter id="filter0_d_2_101" x="0.984329" y="0.940918" width="192.991" height="102.792" filterUnits="userSpaceOnUse" color-interpolation-filters="sRGB">
<feFlood flood-opacity="0" result="BackgroundImageFix"/>
<feColorMatrix in="SourceAlpha" type="matrix" values="0 0 0 0 0 0 0 0 0 0 0 0 0 0 0 0 0 0 127 0" result="hardAlpha"/>
<feOffset dy="4"/>
<feGaussianBlur stdDeviation="7.5"/>
<feComposite in2="hardAlpha" operator="out"/>
<feColorMatrix type="matrix" values="0 0 0 0 0.309804 0 0 0 0 0.52549 0 0 0 0 0.968627 0 0 0 0.7 0"/>
<feBlend mode="normal" in2="BackgroundImageFix" result="effect1_dropShadow_2_101"/>
<feBlend mode="normal" in="SourceGraphic" in2="effect1_dropShadow_2_101" result="shape"/>
</filter>
</defs>
</svg>
