<svg width="39" height="39" viewBox="0 0 39 39" fill="none" xmlns="http://www.w3.org/2000/svg">
<path d="M0 3.19665V35.1632C0 36.9285 1.4313 38.3598 3.19665 38.3598H35.1632C36.9285 38.3598 38.3598 36.9285 38.3598 35.1632V3.19665C38.3598 1.4313 36.9285 0 35.1632 0H3.19665C1.4313 0 0 1.4313 0 3.19665ZM12.6508 31.3272C12.435 31.7348 12.0202 31.9665 11.5879 31.9665C11.3961 31.9665 11.2051 31.9178 11.0293 31.8307C6.32138 29.3453 4.89008 24.102 4.83414 23.8782C4.66711 23.2389 5.05071 22.5844 5.68924 22.4165C6.32937 22.2487 6.98469 22.6323 7.15171 23.2636C8.01321 25.9113 9.69785 28.4118 12.1481 29.7057C12.7315 30.0174 12.9552 30.7438 12.6508 31.3272ZM19.1799 29.569C13.4419 29.569 8.79079 24.9179 8.79079 19.1799C8.79079 13.4419 13.4419 8.79079 19.1799 8.79079C24.9179 8.79079 29.569 13.4419 29.569 19.1799C29.569 24.9179 24.9179 29.569 19.1799 29.569ZM32.3661 8.79079C30.8237 8.79079 29.569 7.53611 29.569 5.99372C29.569 4.45134 30.8237 3.19665 32.3661 3.19665C33.9085 3.19665 35.1632 4.45134 35.1632 5.99372C35.1632 7.53611 33.9085 8.79079 32.3661 8.79079Z" fill="white"/>
</svg>
